<?xml version="1.0" encoding="UTF-8" standalone="no"?>
<svg
   viewBox="0 0 952.77 338.7"
   version="1.1"
   id="svg60"
   sodipodi:docname="pix-106.svg"
   inkscape:version="1.2.1 (9c6d41e410, 2022-07-14)"
   xmlns:inkscape="http://www.inkscape.org/namespaces/inkscape"
   xmlns:sodipodi="http://sodipodi.sourceforge.net/DTD/sodipodi-0.dtd"
   xmlns="http://www.w3.org/2000/svg"
   xmlns:svg="http://www.w3.org/2000/svg">
  <defs
     id="defs64" />
  <sodipodi:namedview
     id="namedview62"
     pagecolor="#505050"
     bordercolor="#eeeeee"
     borderopacity="1"
     inkscape:showpageshadow="0"
     inkscape:pageopacity="0"
     inkscape:pagecheckerboard="0"
     inkscape:deskcolor="#505050"
     showgrid="false"
     inkscape:zoom="5.5742543"
     inkscape:cx="30.497353"
     inkscape:cy="1.7042638"
     inkscape:window-width="1920"
     inkscape:window-height="1017"
     inkscape:window-x="-8"
     inkscape:window-y="-8"
     inkscape:window-maximized="1"
     inkscape:current-layer="svg60" />
  <path
     d="M 35.057488,28.211957 V 10.882474 a 5.7726288,5.7726288 0 0 1 5.772629,-5.7726291 l 5.11606,0.00714 a 5.7646001,5.7646001 0 0 1 5.753004,5.7654921 v 3.687845 a 5.7735209,5.7735209 0 0 1 -5.772629,5.773521 h -7.231175"
     fill="none"
     stroke="#939598"
     stroke-linecap="round"
     stroke-linejoin="round"
     stroke-width="0.55844"
     id="path2" />
  <path
     d="m 53.12918,5.1089529 h 2.219487 a 2.3693559,2.3693559 0 0 1 2.369356,2.3693559 V 20.422343"
     fill="none"
     stroke="#939598"
     stroke-linecap="round"
     stroke-linejoin="round"
     stroke-width="0.55844"
     id="path4" />
  <path
     d="M 57.241654,3.1035643 56.235391,2.0964096 a 0.63872697,0.63872697 0 0 1 0,-0.9036738 l 1.006263,-1.00626259 a 0.64051112,0.64051112 0 0 1 0.905457,0 l 1.005371,1.00626259 a 0.63872697,0.63872697 0 0 1 0,0.9036738 l -1.009831,1.0071547 a 0.63961905,0.63961905 0 0 1 -0.904566,0"
     fill="#32bcad"
     id="path6"
     style="stroke-width:0.0892077" />
  <path
     d="m 61.978581,5.0973559 h 2.200754 a 4.2685874,4.2685874 0 0 1 3.018787,1.2489074 l 5.148176,5.1481747 a 1.7065429,1.7065429 0 0 0 2.414851,0 l 5.129442,-5.128549 a 4.2650191,4.2650191 0 0 1 3.017896,-1.2489075 h 1.789506"
     fill="none"
     stroke="#939598"
     stroke-linecap="round"
     stroke-linejoin="round"
     stroke-width="0.55844"
     id="path8" />
  <path
     d="m 61.978581,20.309049 h 2.200754 a 4.2694794,4.2694794 0 0 0 3.018787,-1.248907 l 5.148176,-5.148176 a 1.708327,1.708327 0 0 1 2.414851,0 l 5.129442,5.129442 a 4.2676953,4.2676953 0 0 0 3.017896,1.248907 h 1.789506"
     fill="none"
     stroke="#939598"
     stroke-linecap="round"
     stroke-linejoin="round"
     stroke-width="0.55844"
     id="path10" />
  <path
     d="m 21.935931,23.597244 a 4.1097977,4.1097977 0 0 1 -2.924228,-1.20698 l -4.223983,-4.22666 a 0.8028691,0.8028691 0 0 0 -1.109744,0 L 9.4397196,22.401861 A 4.1115819,4.1115819 0 0 1 6.5154919,23.612409 H 5.6885368 l 5.3524602,5.352461 a 4.2819685,4.2819685 0 0 0 6.049173,0 l 5.363166,-5.364058 z"
     fill="#32bcad"
     id="path12"
     style="stroke-width:0.0892077" />
  <path
     d="m 6.516384,8.6603105 a 4.1106898,4.1106898 0 0 1 2.9242277,1.2105482 l 4.2382563,4.2391493 a 0.78591964,0.78591964 0 0 0 1.109744,0 l 4.223091,-4.2230919 a 4.1035532,4.1035532 0 0 1 2.924228,-1.2114403 h 0.508484 L 17.081249,3.3123102 a 4.2766161,4.2766161 0 0 0 -6.049172,0 L 5.6885368,8.6603105 Z"
     fill="#32bcad"
     id="path14"
     style="stroke-width:0.0892077" />
  <path
     d="M 26.880713,13.112666 23.639798,9.8717508 a 0.62445374,0.62445374 0 0 1 -0.230156,0.046388 h -1.473711 a 2.9099544,2.9099544 0 0 0 -2.045532,0.8474732 l -4.223091,4.220415 a 2.0285826,2.0285826 0 0 1 -2.866243,0 L 8.561916,10.749554 A 2.9099544,2.9099544 0 0 0 6.516384,9.9011893 H 4.7072523 A 0.63515866,0.63515866 0 0 1 4.4895856,9.8574775 L 1.2281529,13.112666 a 4.2819685,4.2819685 0 0 0 0,6.049172 l 3.2542961,3.254296 a 0.61107259,0.61107259 0 0 1 0.2176667,-0.04371 H 6.516384 a 2.9108465,2.9108465 0 0 0 2.045532,-0.848365 l 4.238257,-4.238257 c 0.766294,-0.765402 2.101733,-0.765402 2.867135,0 L 19.890399,21.508 a 2.9099544,2.9099544 0 0 0 2.045532,0.847473 h 1.473711 a 0.61553297,0.61553297 0 0 1 0.230156,0.04639 l 3.240915,-3.240915 a 4.2766161,4.2766161 0 0 0 0,-6.049172"
     fill="#32bcad"
     id="path16"
     style="stroke-width:0.0892077" />
  <path
     d="m 39.457211,26.739138 a 3.7583195,3.7583195 0 0 0 -0.793056,0.120431 v 1.056219 a 1.8376782,1.8376782 0 0 0 0.617317,0.103481 c 0.529893,0 0.780567,-0.178416 0.780567,-0.644972 0,-0.438902 -0.205178,-0.635159 -0.604828,-0.635159 m -0.971472,1.962569 v -2.090136 h 0.145409 l 0.01516,0.08921 a 4.1811638,4.1811638 0 0 1 0.826063,-0.132919 0.81714233,0.81714233 0 0 1 0.541491,0.157005 c 0.178415,0.148085 0.239076,0.387162 0.239076,0.647648 0,0.260486 -0.08921,0.529894 -0.338989,0.671734 a 1.30154,1.30154 0 0 1 -0.614641,0.136487 2.2141346,2.2141346 0 0 1 -0.635158,-0.09724 v 0.614641 z"
     fill="#939598"
     id="path18"
     style="stroke-width:0.0892077" />
  <path
     d="m 41.582138,26.732894 c -0.529002,0 -0.765402,0.165926 -0.765402,0.632482 0,0.450499 0.232832,0.653893 0.765402,0.653893 0.53257,0 0.762726,-0.164143 0.762726,-0.629807 0,-0.450498 -0.232833,-0.656568 -0.762726,-0.656568 m 0.681547,1.286375 c -0.178416,0.126674 -0.41214,0.16325 -0.681547,0.16325 -0.269407,0 -0.51116,-0.03925 -0.683331,-0.16325 -0.193581,-0.136488 -0.272975,-0.356831 -0.272975,-0.641404 0,-0.284572 0.07939,-0.505807 0.272975,-0.644971 0.172171,-0.123999 0.408571,-0.16325 0.683331,-0.16325 0.27476,0 0.505807,0.03925 0.681547,0.16325 0.196256,0.139164 0.272083,0.365751 0.272083,0.641403 0,0.275652 -0.0785,0.508484 -0.272083,0.644972"
     fill="#939598"
     id="path20"
     style="stroke-width:0.0892077" />
  <path
     d="m 44.77042,28.139699 -0.590555,-1.267641 h -0.0116 l -0.581634,1.267641 h -0.16325 l -0.624453,-1.528128 h 0.196256 l 0.52365,1.282807 h 0.01249 l 0.569145,-1.282807 h 0.16325 l 0.583418,1.282807 h 0.01249 l 0.51116,-1.282807 h 0.193581 l -0.629807,1.528128 z"
     fill="#939598"
     id="path22"
     style="stroke-width:0.0892077" />
  <path
     d="m 46.701766,26.729326 c -0.490642,0 -0.656568,0.218558 -0.686899,0.535246 h 1.373799 c -0.01517,-0.34791 -0.193581,-0.535246 -0.6869,-0.535246 m -0.0062,1.453193 c -0.293493,0 -0.484398,-0.04282 -0.636051,-0.169495 -0.178415,-0.154329 -0.238184,-0.378241 -0.238184,-0.635159 0,-0.256918 0.08118,-0.505807 0.284572,-0.653892 a 1.0151834,1.0151834 0 0 1 0.595907,-0.154329 1.0704921,1.0704921 0 0 1 0.611073,0.148085 c 0.220343,0.148084 0.263163,0.408571 0.263163,0.70474 h -1.565595 c 0.0062,0.314903 0.108833,0.593231 0.702064,0.593231 a 4.6164973,4.6164973 0 0 0 0.789488,-0.08921 v 0.160573 a 4.6682378,4.6682378 0 0 1 -0.802869,0.09367"
     fill="#939598"
     id="path24"
     style="stroke-width:0.0892077" />
  <path
     d="m 48.088946,28.139699 v -1.528128 h 0.144516 l 0.01517,0.08921 c 0.323823,-0.08207 0.475477,-0.132919 0.760049,-0.132919 h 0.02141 v 0.169494 h -0.04282 c -0.239076,0 -0.384485,0.03301 -0.719906,0.120431 v 1.28013 z"
     fill="#939598"
     id="path26"
     style="stroke-width:0.0892077" />
  <path
     d="m 50.06668,26.729326 c -0.48975,0 -0.656568,0.218558 -0.686899,0.535246 h 1.373798 c -0.01517,-0.34791 -0.19358,-0.535246 -0.686899,-0.535246 m -0.0062,1.453193 c -0.293494,0 -0.483506,-0.04282 -0.635159,-0.169495 -0.178415,-0.154329 -0.239077,-0.378241 -0.239077,-0.635159 0,-0.256918 0.08207,-0.505807 0.284573,-0.653892 a 1.0187517,1.0187517 0 0 1 0.595907,-0.154329 1.0704921,1.0704921 0 0 1 0.611073,0.148085 c 0.221235,0.148084 0.267623,0.408571 0.267623,0.70474 h -1.57184 c 0.0062,0.314903 0.108834,0.593231 0.702065,0.593231 a 4.6173894,4.6173894 0 0 0 0.79038,-0.08921 v 0.160573 a 4.6780506,4.6780506 0 0 1 -0.802869,0.09367"
     fill="#939598"
     id="path28"
     style="stroke-width:0.0892077" />
  <path
     d="m 52.89724,26.835483 a 1.8376782,1.8376782 0 0 0 -0.617317,-0.102589 c -0.529894,0 -0.780568,0.178415 -0.780568,0.644971 0,0.441578 0.20607,0.635159 0.604828,0.635159 a 3.9304903,3.9304903 0 0 0 0.793057,-0.118646 z m 0.0339,1.304216 -0.01606,-0.08921 a 4.1089056,4.1089056 0 0 1 -0.826063,0.133812 0.8028691,0.8028691 0 0 1 -0.54149,-0.157898 c -0.178416,-0.148085 -0.239077,-0.387161 -0.239077,-0.646755 0,-0.272976 0.08921,-0.529894 0.338989,-0.669058 a 1.2801302,1.2801302 0 0 1 0.617317,-0.139164 2.335457,2.335457 0 0 1 0.632483,0.09634 v -0.70028 h 0.178415 v 2.172207 z"
     fill="#939598"
     id="path30"
     style="stroke-width:0.0892077" />
  <path
     d="m 55.6939,26.739138 a 3.7583195,3.7583195 0 0 0 -0.793056,0.120431 v 1.053542 a 1.7841535,1.7841535 0 0 0 0.617317,0.106158 c 0.529894,0 0.780567,-0.178416 0.780567,-0.644972 0,-0.438902 -0.205177,-0.635159 -0.604828,-0.635159 m 0.456744,1.306893 a 1.2997559,1.2997559 0 0 1 -0.613749,0.136488 2.1722069,2.1722069 0 0 1 -0.684223,-0.115078 l -0.0089,0.07226 H 54.72245 v -2.172207 h 0.178415 v 0.728827 a 4.3122991,4.3122991 0 0 1 0.808222,-0.126675 0.81714233,0.81714233 0 0 1 0.54149,0.157005 c 0.178416,0.148085 0.239077,0.387162 0.239077,0.647648 0,0.260486 -0.08921,0.529894 -0.338989,0.671734"
     fill="#939598"
     id="path32"
     style="stroke-width:0.0892077" />
  <path
     d="m 56.726925,28.724009 v -0.165926 c 0.08921,0.0089 0.169495,0.01516 0.226588,0.01516 0.221235,0 0.35683,-0.06423 0.478153,-0.314903 l 0.05799,-0.121322 -0.802869,-1.528128 h 0.206962 l 0.684223,1.319382 h 0.0116 l 0.650323,-1.319382 h 0.203394 l -0.859962,1.716356 c -0.157006,0.311335 -0.3265,0.413924 -0.638727,0.413924 A 1.7377656,1.7377656 0 0 1 56.724257,28.724"
     fill="#939598"
     id="path34"
     style="stroke-width:0.0892077" />
  <path
     d="M 60.908089,27.26814 H 60.31575 v 0.535246 h 0.592339 c 0.408571,0 0.562901,-0.0455 0.562901,-0.267623 0,-0.239077 -0.212315,-0.267623 -0.566469,-0.267623 m -0.107049,-0.86353 h -0.483506 v 0.544166 h 0.487074 c 0.402327,0 0.5629,-0.04817 0.5629,-0.274759 0,-0.242645 -0.203393,-0.267623 -0.566468,-0.267623 m 0.920623,1.595033 c -0.218559,0.139164 -0.481722,0.144516 -0.962551,0.144516 h -0.905458 v -2.078538 h 0.884048 c 0.414816,0 0.669058,0.0054 0.88048,0.132919 a 0.4380097,0.4380097 0 0 1 0.212314,0.411247 c 0,0.217667 -0.08921,0.363076 -0.327392,0.460312 v 0.0116 c 0.267623,0.06066 0.438902,0.197149 0.438902,0.490642 a 0.44603839,0.44603839 0 0 1 -0.220343,0.421061"
     fill="#939598"
     id="path36"
     style="stroke-width:0.0892077" />
  <path
     d="m 63.748462,27.498296 c -0.178416,-0.01517 -0.356831,-0.02409 -0.550412,-0.02409 -0.311335,0 -0.42106,0.06334 -0.42106,0.206069 0,0.142733 0.08921,0.205178 0.330068,0.205178 a 3.079449,3.079449 0 0 0 0.641404,-0.08921 z m 0.08921,0.641403 -0.0116,-0.08921 a 3.6673276,3.6673276 0 0 1 -0.829631,0.133812 0.79216418,0.79216418 0 0 1 -0.462988,-0.112402 0.47280069,0.47280069 0 0 1 0.08921,-0.783243 c 0.160573,-0.07583 0.375564,-0.08207 0.572713,-0.08207 0.159682,0 0.374672,0.0089 0.553088,0.02141 v -0.02765 c 0,-0.239076 -0.157006,-0.317579 -0.586987,-0.317579 -0.165926,0 -0.36932,0.0089 -0.5629,0.02676 v -0.308658 c 0.21499,-0.01784 0.457635,-0.02944 0.65746,-0.02944 0.267623,0 0.541491,0.02052 0.713662,0.14184 0.17217,0.121323 0.208746,0.297062 0.208746,0.523649 v 0.904566 z"
     fill="#939598"
     id="path38"
     style="stroke-width:0.0892077" />
  <path
     d="m 66.171342,28.139699 v -0.843013 c 0,-0.278328 -0.14184,-0.37824 -0.396082,-0.37824 a 2.9108465,2.9108465 0 0 0 -0.624454,0.09634 v 1.125801 h -0.426412 v -1.52902 h 0.347909 l 0.01517,0.09724 a 3.532624,3.532624 0 0 1 0.817142,-0.139164 0.75380487,0.75380487 0 0 1 0.523649,0.157005 c 0.120431,0.108834 0.165926,0.260487 0.165926,0.478153 v 0.934897 z"
     fill="#939598"
     id="path40"
     style="stroke-width:0.0892077" />
  <path
     d="m 67.800274,28.182519 c -0.197149,0 -0.412139,-0.02765 -0.569145,-0.160574 -0.187336,-0.151653 -0.241753,-0.389838 -0.241753,-0.647648 0,-0.241753 0.0785,-0.505807 0.311335,-0.653892 0.190905,-0.123999 0.426413,-0.150761 0.671734,-0.150761 0.178415,0 0.34791,0.0116 0.535246,0.02944 v 0.327393 c -0.154329,-0.01517 -0.338989,-0.02676 -0.487074,-0.02676 -0.405895,0 -0.596799,0.126675 -0.596799,0.478153 0,0.329177 0.142732,0.471909 0.475477,0.471909 a 3.6298604,3.6298604 0 0 0 0.641403,-0.0785 v 0.314011 a 3.8038154,3.8038154 0 0 1 -0.743992,0.09724"
     fill="#939598"
     id="path42"
     style="stroke-width:0.0892077" />
  <path
     d="m 69.804771,26.889899 c -0.405895,0 -0.58431,0.127567 -0.58431,0.475477 0,0.34791 0.178415,0.495995 0.58431,0.495995 0.405895,0 0.578066,-0.123999 0.578066,-0.471909 0,-0.34791 -0.172171,-0.499563 -0.578066,-0.499563 m 0.732395,1.132046 c -0.187336,0.126675 -0.432657,0.160574 -0.732395,0.160574 -0.299738,0 -0.550412,-0.03658 -0.735071,-0.160574 -0.212315,-0.139164 -0.288141,-0.36932 -0.288141,-0.64408 0,-0.274759 0.07583,-0.509375 0.288141,-0.648539 0.184659,-0.123999 0.429088,-0.159682 0.735071,-0.159682 0.305982,0 0.545059,0.03568 0.732395,0.159682 0.211422,0.139164 0.284572,0.372888 0.284572,0.644971 0,0.272083 -0.07583,0.508484 -0.284572,0.647648"
     fill="#939598"
     id="path44"
     style="stroke-width:0.0892077" />
  <path
     d="m 73.284762,28.182519 c -0.256918,0 -0.535246,-0.04282 -0.743992,-0.214991 -0.247997,-0.20607 -0.323824,-0.523649 -0.323824,-0.865314 0,-0.305983 0.09724,-0.669058 0.420169,-0.88048 0.251565,-0.16325 0.5629,-0.197149 0.877803,-0.197149 0.230156,0 0.466556,0.01517 0.723474,0.03658 v 0.371996 c -0.220343,-0.01784 -0.493318,-0.03301 -0.70474,-0.03301 -0.590555,0 -0.841229,0.223912 -0.841229,0.702065 0,0.478153 0.232832,0.70474 0.668166,0.70474 a 4.7137337,4.7137337 0 0 0 0.923299,-0.123998 v 0.369319 a 5.1740453,5.1740453 0 0 1 -0.999126,0.130244"
     fill="#939598"
     id="path46"
     style="stroke-width:0.0892077" />
  <path
     d="m 75.538148,26.841727 c -0.35683,0 -0.490642,0.127567 -0.518296,0.356831 h 1.029456 c -0.01249,-0.247997 -0.157897,-0.356831 -0.51116,-0.356831 m -0.06423,1.338115 c -0.250674,0 -0.478153,-0.03033 -0.647648,-0.169494 -0.169495,-0.139164 -0.245321,-0.378241 -0.245321,-0.638727 0,-0.232832 0.07583,-0.493319 0.288141,-0.644972 0.187336,-0.132919 0.426412,-0.159681 0.669057,-0.159681 0.217667,0 0.474585,0.02409 0.661921,0.154329 0.245321,0.172171 0.267623,0.438902 0.267623,0.752913 h -1.450517 c 0.0089,0.233724 0.13292,0.384485 0.562901,0.384485 a 5.5139265,5.5139265 0 0 0 0.814466,-0.0785 v 0.299738 a 5.8261534,5.8261534 0 0 1 -0.920623,0.09991"
     fill="#939598"
     id="path48"
     style="stroke-width:0.0892077" />
  <path
     d="m 78.367816,28.139699 v -0.843013 c 0,-0.278328 -0.14184,-0.37824 -0.396082,-0.37824 a 2.9108465,2.9108465 0 0 0 -0.624454,0.09634 v 1.125801 h -0.426413 v -1.52902 h 0.34791 l 0.01516,0.09724 a 3.532624,3.532624 0 0 1 0.817143,-0.139164 0.75380487,0.75380487 0 0 1 0.523649,0.157005 c 0.12043,0.108834 0.165926,0.260487 0.165926,0.478153 v 0.934897 z"
     fill="#939598"
     id="path50"
     style="stroke-width:0.0892077" />
  <path
     d="m 80.006561,28.182519 c -0.20607,0 -0.393406,-0.05798 -0.495995,-0.218559 a 0.78948795,0.78948795 0 0 1 -0.112402,-0.462096 v -0.572713 h -0.308658 v -0.31758 h 0.308658 l 0.0455,-0.462987 h 0.376457 v 0.462987 h 0.602152 v 0.31758 h -0.602152 v 0.490642 a 0.73685542,0.73685542 0 0 0 0.04193,0.290817 c 0.0455,0.102589 0.145409,0.14184 0.27922,0.14184 a 1.9001235,1.9001235 0 0 0 0.305091,-0.03033 v 0.305982 a 2.4594557,2.4594557 0 0 1 -0.441578,0.05442"
     fill="#939598"
     id="path52"
     style="stroke-width:0.0892077" />
  <path
     d="m 80.840653,28.139699 v -1.528128 h 0.34791 l 0.01516,0.09724 a 2.6548205,2.6548205 0 0 1 0.756481,-0.139164 0.46655615,0.46655615 0 0 1 0.05442,0 v 0.370212 c -0.04817,0 -0.106158,0 -0.148085,0 a 2.4032548,2.4032548 0 0 0 -0.599476,0.0785 v 1.128478 z"
     fill="#939598"
     id="path54"
     style="stroke-width:0.0892077" />
  <path
     d="m 83.566839,27.498296 c -0.178415,-0.01517 -0.356831,-0.02409 -0.551303,-0.02409 -0.311335,0 -0.420168,0.06334 -0.420168,0.206069 0,0.142733 0.08921,0.205178 0.329176,0.205178 a 3.0874777,3.0874777 0 0 0 0.642295,-0.08921 z m 0.08921,0.641403 -0.01249,-0.08921 a 3.6673276,3.6673276 0 0 1 -0.829632,0.133812 0.79216418,0.79216418 0 0 1 -0.462987,-0.112402 0.43444139,0.43444139 0 0 1 -0.169495,-0.36932 0.42908893,0.42908893 0 0 1 0.25781,-0.413923 c 0.160574,-0.07583 0.374672,-0.08207 0.571821,-0.08207 0.160574,0 0.375565,0.0089 0.55398,0.02141 v -0.02765 c 0,-0.239076 -0.157898,-0.317579 -0.586986,-0.317579 -0.166819,0 -0.36932,0.0089 -0.562901,0.02676 v -0.308658 c 0.214991,-0.01784 0.456743,-0.02944 0.656569,-0.02944 0.267623,0 0.54149,0.02052 0.713661,0.14184 0.172171,0.121323 0.208746,0.297062 0.208746,0.523649 v 0.904566 z"
     fill="#939598"
     id="path56"
     style="stroke-width:0.0892077" />
  <path
     d="m 84.540987,25.967492 h 0.427305 v 2.172207 h -0.427305 z"
     fill="#939598"
     id="path58"
     style="stroke-width:0.0892077" />
</svg>
